<svg width="21" height="24" viewBox="0 0 21 24" fill="none" xmlns="http://www.w3.org/2000/svg">
<path d="M10.5 1.25C11.1631 1.25 11.7106 1.40738 12.1992 1.74023C12.6341 2.03647 13.0478 2.48887 13.4531 3.15039L13.626 3.44629L14.0166 4.19824C15.8575 7.86222 17.6274 11.5615 19.3252 15.2939V15.2949L19.4375 15.5566V15.5557C19.9263 16.7234 20.0762 17.3244 20.1172 17.9307V18.2285L20.1182 18.2393L20.124 18.4033C20.1209 19.7951 19.6298 20.8716 18.8721 21.6016C18.1083 22.3372 17.0443 22.7499 15.8555 22.75C14.3775 22.75 12.7493 21.9053 11.1826 20.3535H11.1836L10.9883 20.1592L10.8613 20.0312L10.7148 19.8848H10.2773L10.1289 20.042L10.0068 20.1709C8.51523 21.6988 6.9579 22.5975 5.51367 22.7354L5.32227 22.7432H5.32031L5.13281 22.749C3.94874 22.7462 2.8892 22.3348 2.12793 21.6016C1.36778 20.8693 0.875 19.7879 0.875 18.3896V18.0537C0.894851 17.4383 1.022 16.87 1.45996 15.7969L1.45898 15.7959L1.62305 15.4043C2.34257 13.6982 6.1555 5.72795 7.37207 3.43457C7.83684 2.61585 8.30614 2.07549 8.80273 1.73828C9.29087 1.40683 9.83702 1.25 10.5 1.25ZM10.5029 9.49023C9.61817 9.49904 8.88322 9.83554 8.375 10.4092C7.87268 10.9762 7.62213 11.7387 7.62207 12.5547C7.62207 13.3242 7.87102 14.2542 8.27148 15.2041C8.67408 16.1589 9.24594 17.1703 9.93066 18.1182V18.1191L10.0811 18.3359L10.4756 18.9082L10.8926 18.3525L11.0273 18.1729L11.0322 18.166C12.3541 16.3473 13.2941 14.2442 13.377 12.748L13.3779 12.7334V12.5547C13.3779 11.7419 13.1271 10.9803 12.6279 10.4131C12.1544 9.87503 11.4827 9.54194 10.6758 9.49512L10.5127 9.49023H10.5029ZM19.625 18.0713L19.624 18.0537C19.5695 17.3102 19.3721 16.5838 19.043 15.915L18.8594 15.4756L18.8574 15.4707L18.4316 14.5156C17.3504 12.1457 15.0192 7.28374 13.7354 4.74219L13.1914 3.6875L13.1865 3.67871L13.0469 3.43848C12.7212 2.89581 12.3879 2.4841 12 2.20312C11.5395 1.86953 11.0457 1.75 10.5 1.75C9.95281 1.75 9.45948 1.87229 9.00098 2.2041C8.55953 2.52364 8.18909 3.01046 7.82227 3.66211L7.81738 3.66992L7.81348 3.67676L7.42383 4.42676L7.4209 4.43359C5.58987 8.08002 3.82874 11.7613 2.13965 15.4756L2.13672 15.4824L2.13379 15.4902L1.87793 16.1035C1.61007 16.6853 1.44357 17.3085 1.38477 17.9463L1.38281 17.9619V17.9775L1.375 18.2246V18.3896C1.375 19.5847 1.77408 20.5619 2.47266 21.2393C3.16784 21.9134 4.11725 22.2499 5.14453 22.25C6.68265 22.25 8.38264 21.1941 9.88379 19.5781L10.1738 19.2656L9.91113 18.9297C9.07308 17.8584 8.3721 16.6849 7.88184 15.5615C7.38872 14.4315 7.12207 13.3828 7.12207 12.5547C7.12221 10.596 8.39714 9.01239 10.5068 8.99023C12.6011 9.01174 13.8778 10.5943 13.8779 12.5547C13.8779 13.3788 13.6123 14.4255 13.1191 15.5547C12.6289 16.6773 11.927 17.8505 11.0889 18.9219L10.8262 19.2568L11.1152 19.5693C12.6244 21.2011 14.3171 22.25 15.8555 22.25C16.8827 22.2499 17.8322 21.9134 18.5273 21.2393C19.2259 20.5619 19.625 19.5847 19.625 18.3896V18.0713Z" fill="#0A0A0A" stroke="#717375"/>
</svg>
