<svg width="22" height="21" viewBox="0 0 22 21" fill="none" xmlns="http://www.w3.org/2000/svg">
<path d="M14.5928 13.8929L20.7 20M9.16424 15.9286C10.1445 15.9286 11.1151 15.7355 12.0207 15.3604C12.9263 14.9853 13.7492 14.4355 14.4423 13.7423C15.1354 13.0492 15.6852 12.2264 16.0603 11.3207C16.4355 10.4151 16.6285 9.44451 16.6285 8.46429C16.6285 7.48406 16.4355 6.51344 16.0603 5.60783C15.6852 4.70222 15.1354 3.87936 14.4423 3.18624C13.7492 2.49312 12.9263 1.9433 12.0207 1.56818C11.1151 1.19307 10.1445 1 9.16424 1C7.18458 1 5.28601 1.78641 3.88619 3.18624C2.48636 4.58606 1.69995 6.48463 1.69995 8.46429C1.69995 10.4439 2.48636 12.3425 3.88619 13.7423C5.28601 15.1422 7.18458 15.9286 9.16424 15.9286Z" stroke="#717375" stroke-width="2"/>
</svg>
