<svg width="21" height="19" viewBox="0 0 21 19" fill="none" xmlns="http://www.w3.org/2000/svg">
<path d="M10.0998 17C14.5998 13.8478 19.0998 10.3358 19.0998 5.67084C19.1015 5.05773 18.9863 4.45033 18.7608 3.88356C18.5352 3.31679 18.2038 2.80183 17.7856 2.36829C17.3674 1.93476 16.8707 1.59121 16.3239 1.3574C15.7772 1.12359 15.1913 1.00413 14.5998 1.00589C13.4427 1.00589 12.2984 1.45905 11.4177 2.37205L10.0998 3.73821L8.78199 2.37205C8.36499 1.93723 7.86917 1.59216 7.32306 1.35669C6.77695 1.12122 6.19132 1 5.59985 1C5.00839 1 4.42276 1.12122 3.87665 1.35669C3.33054 1.59216 2.83472 1.93723 2.41771 2.37205C1.99929 2.80483 1.66747 3.31904 1.44131 3.88514C1.21515 4.45125 1.09911 5.0581 1.09986 5.67084C1.09986 10.3358 5.59985 13.8478 10.0998 17Z" stroke="#717375" stroke-width="2"/>
</svg>
