<svg width="21" height="20" viewBox="0 0 21 20" fill="none" xmlns="http://www.w3.org/2000/svg">
<path d="M10.2998 0.5C11.3913 0.5 12.4735 0.687909 13.499 1.05469L13.9355 1.22266C14.9439 1.64035 15.8716 2.22864 16.6787 2.95996L17.0176 3.28223C17.7895 4.05419 18.4218 4.95272 18.8877 5.9375L19.0771 6.36426C19.5546 7.51685 19.7998 8.75244 19.7998 10C19.7998 11.0915 19.6119 12.1737 19.2451 13.1992L19.0771 13.6357C18.6595 14.6441 18.0712 15.5718 17.3398 16.3789L17.0176 16.7178C16.2456 17.4897 15.3471 18.122 14.3623 18.5879L13.9355 18.7773C12.783 19.2548 11.5474 19.5 10.2998 19.5C7.93768 19.5 5.66653 18.62 3.92383 17.042L3.58203 16.7178C1.80044 14.9362 0.799805 12.5196 0.799805 10C0.799805 7.48044 1.80044 5.06382 3.58203 3.28223C5.25237 1.61189 7.48092 0.628119 9.8291 0.511719L10.2998 0.5ZM10.2988 4.83301C9.52899 4.83399 8.77984 5.06685 8.14746 5.49707L7.88379 5.69336C7.28678 6.17925 6.85169 6.83199 6.63184 7.56445L6.55176 7.88281C6.39443 8.6364 6.4678 9.41769 6.75879 10.125L6.89648 10.4238C7.24858 11.1066 7.79704 11.6645 8.4668 12.0303V12.7168C6.58015 13.1704 4.92477 14.309 3.82715 15.918L3.58984 16.2646L3.89062 16.5576C5.5466 18.1713 7.80387 19.167 10.2998 19.167C12.7957 19.167 15.053 18.1713 16.709 16.5576L17.0098 16.2656L16.7725 15.918C15.6751 14.3086 14.0197 13.1698 12.1328 12.7158V12.0293C12.6606 11.7425 13.1162 11.3369 13.459 10.8398C13.8654 10.2505 14.0991 9.55889 14.1328 8.84375V8.66699C14.1328 7.65041 13.7295 6.67493 13.0107 5.95605C12.3369 5.28218 11.4376 4.88497 10.4902 4.83789L10.2998 4.83301H10.2988ZM10.2998 0.833008C8.7072 0.832697 7.14358 1.24709 5.7627 2.0332L5.48926 2.19629C4.13337 3.0318 3.01977 4.20476 2.25684 5.59863L2.10938 5.87988C1.39355 7.30262 1.06161 8.88575 1.14355 10.4727L1.16504 10.79C1.30229 12.3766 1.85056 13.8983 2.75293 15.2061L2.93848 15.4648L3.33984 16.0059L3.74121 15.4648C4.63079 14.2652 5.83175 13.3312 7.21387 12.7656L7.44043 12.6816L8.1709 12.4111L7.62012 11.8594L7.60645 11.8467L7.59375 11.833L7.5791 11.8213L7.41992 11.6768C7.11039 11.3815 6.84824 11.0402 6.64258 10.665L6.54395 10.4746C6.32626 10.024 6.1919 9.53822 6.14648 9.04102L6.13281 8.82715V8.66699L6.1416 8.4082C6.17413 7.89307 6.30168 7.3883 6.51855 6.91992L6.63477 6.68848C6.92242 6.15671 7.32214 5.69481 7.80469 5.33398L8.0166 5.18555C8.52242 4.85418 9.0933 4.6371 9.68945 4.54883L9.94629 4.51953C10.5488 4.46822 11.1542 4.54839 11.7207 4.75391L11.9609 4.84961C12.5152 5.09056 13.0094 5.4488 13.4102 5.89844L13.5762 6.09668C13.9496 6.57213 14.2144 7.12274 14.3535 7.70898L14.4062 7.96289C14.5089 8.55846 14.4802 9.16824 14.3242 9.75L14.249 9.99805C14.0298 10.6505 13.6523 11.2381 13.1504 11.709L13.0049 11.8359L12.4414 12.3262L13.1094 12.6602L13.1357 12.6738L13.1592 12.6855L13.1836 12.6943C14.6474 13.2473 15.9229 14.2093 16.8594 15.46L17.2617 15.9971L17.6611 15.458C18.6087 14.1793 19.2068 12.6771 19.3975 11.1006L19.4297 10.7842C19.5658 9.19867 19.2863 7.60711 18.6221 6.16504L18.4844 5.87891C17.7687 4.45724 16.6962 3.24776 15.374 2.36816L15.1064 2.19629C13.7519 1.36139 12.2048 0.894539 10.6182 0.838867L10.2998 0.833008Z" fill="#0A0A0A" stroke="#717375"/>
</svg>
