<svg width="42" height="42" viewBox="0 0 42 42" fill="none" xmlns="http://www.w3.org/2000/svg">
<path d="M1 21C1 9.95431 9.95431 1 21 1C32.0457 1 41 9.95431 41 21C41 32.0457 32.0457 41 21 41C9.95431 41 1 32.0457 1 21Z" fill="white"/>
<path d="M1 21C1 9.95431 9.95431 1 21 1C32.0457 1 41 9.95431 41 21C41 32.0457 32.0457 41 21 41C9.95431 41 1 32.0457 1 21Z" stroke="#E2E2E2"/>
<path d="M17 21C18.3059 21 19.4141 21.8353 19.8262 23H27L27.1025 23.0049C27.6067 23.0562 28 23.4823 28 24C28 24.5177 27.6067 24.9438 27.1025 24.9951L27 25H19.8262C19.4141 26.1647 18.3059 27 17 27C15.3431 27 14 25.6569 14 24C14 22.3431 15.3431 21 17 21ZM17 23C16.4477 23 16 23.4477 16 24C16 24.5523 16.4477 25 17 25C17.5523 25 18 24.5523 18 24C18 23.4477 17.5523 23 17 23ZM25 15C26.6569 15 28 16.3431 28 18C28 19.6569 26.6569 21 25 21C23.6941 21 22.5859 20.1647 22.1738 19H15C14.4477 19 14 18.5523 14 18C14 17.4477 14.4477 17 15 17H22.1738C22.5859 15.8353 23.6941 15 25 15ZM25 17C24.4477 17 24 17.4477 24 18C24 18.5523 24.4477 19 25 19C25.5523 19 26 18.5523 26 18C26 17.4477 25.5523 17 25 17Z" fill="black"/>
</svg>
